<svg width="60" height="60" viewBox="0 0 60 60" fill="none" xmlns="http://www.w3.org/2000/svg">
    <path d="M0 30C0 13.4315 13.4315 0 30 0H60V30C60 46.5685 46.5685 60 30 60C13.4315 60 0 46.5685 0 30Z" fill="#004DFF"/>
    <g clip-path="url(#clip0_1191_17762)">
    <path d="M42.2416 23.3733L31.0389 17.2623C30.7025 17.0789 30.2975 17.0789 29.9611 17.2623L18.7595 23.3733C17.6739 23.9639 17 25.099 17 26.3365V38.5C17 40.3608 18.5142 41.875 20.375 41.875H40.625C42.4857 41.875 44 40.3608 44 38.5V26.3365C44 25.099 43.3261 23.9639 42.2416 23.3733ZM19.8361 25.3488L30.5 19.5314L41.1639 25.3477C41.525 25.5457 41.75 25.9237 41.75 26.3365V27.7417L31.1592 33.2733C30.7531 33.4837 30.2469 33.4837 29.8441 33.2755L19.25 27.7417V26.3365C19.25 25.9237 19.475 25.5457 19.8361 25.3488Z" fill="white"/>
    </g>
    <circle cx="41.5" cy="23.5" r="11.5" fill="white" fill-opacity="0.18"/>
    <defs>
    <clipPath id="clip0_1191_17762">
    <rect width="27" height="27" fill="white" transform="translate(17 16)"/>
    </clipPath>
    </defs>
    </svg>
    