<svg width="18" height="18" viewBox="0 0 18 18" fill="none" xmlns="http://www.w3.org/2000/svg">
    <path d="M6.42953 9.00006C7.06536 9.00006 7.68691 8.8115 8.21557 8.45824C8.74424 8.10498 9.15627 7.60289 9.39957 7.01545C9.64286 6.42801 9.70649 5.78161 9.58241 5.15801C9.45832 4.5344 9.1521 3.9616 8.70246 3.51204C8.25282 3.06248 7.67997 2.75636 7.05634 2.63238C6.43271 2.50841 5.78633 2.57215 5.19893 2.81555C4.61154 3.05894 4.10951 3.47107 3.75634 3.99979C3.40318 4.52852 3.21473 5.1501 3.21484 5.78593C3.21574 6.63819 3.55473 7.45528 4.15742 8.05787C4.76012 8.66046 5.57727 8.99931 6.42953 9.00006V9.00006Z" fill="#004DFF"/>
    <path d="M10.6341 11.6556C9.81946 10.82 8.77428 10.2463 7.63203 10.0076C6.48977 9.76895 5.3023 9.8762 4.22129 10.3157C3.14029 10.7551 2.21482 11.5069 1.56311 12.4748C0.911396 13.4428 0.563027 14.5831 0.5625 15.75C0.5625 15.8992 0.621763 16.0423 0.727252 16.1478C0.832742 16.2533 0.975816 16.3125 1.125 16.3125H11.7338C11.8829 16.3125 12.026 16.2533 12.1315 16.1478C12.237 16.0423 12.2963 15.8992 12.2963 15.75C12.2984 15.1536 12.2064 14.5605 12.0234 13.9928C11.7511 13.1151 11.275 12.3142 10.6341 11.6556V11.6556Z" fill="#004DFF"/>
    <path d="M13.2188 9.28125C14.5391 9.28125 15.6094 8.21093 15.6094 6.89062C15.6094 5.57032 14.5391 4.5 13.2188 4.5C11.8984 4.5 10.8281 5.57032 10.8281 6.89062C10.8281 8.21093 11.8984 9.28125 13.2188 9.28125Z" fill="#004DFF"/>
    <path d="M13.219 9.93933C12.465 9.94216 11.7256 10.1475 11.0781 10.5339C11.2002 10.643 11.3234 10.7505 11.4387 10.8686C12.2046 11.6558 12.7736 12.613 13.0992 13.662C13.2107 14.0073 13.2929 14.3614 13.345 14.7206H16.8752C17.0244 14.7206 17.1675 14.6613 17.273 14.5558C17.3785 14.4503 17.4377 14.3073 17.4377 14.1581C17.4366 13.0396 16.9917 11.9672 16.2008 11.1763C15.4099 10.3854 14.3375 9.94052 13.219 9.93933Z" fill="#004DFF"/>
    </svg>
    