<svg width="115" height="115" viewBox="0 0 115 115" fill="none" xmlns="http://www.w3.org/2000/svg">
    <circle cx="57.5" cy="57.5" r="40.5" fill="white"/>
    <circle cx="57.5" cy="57.5" r="45" stroke="white" stroke-opacity="0.27" stroke-width="9"/>
    <path d="M36.9362 66.1806C37.2559 66.1786 37.5752 66.2021 37.8912 66.251C37.9166 66.2582 37.9424 66.2616 37.9683 66.2668C38.6437 66.4029 39.2864 66.6681 39.8613 67.0479C41.0232 67.8187 42.393 68.2161 43.787 68.1868C45.1667 68.2196 46.5235 67.8299 47.6755 67.0699C47.6884 67.0632 47.7009 67.0565 47.7137 67.0489C48.5727 66.4589 49.5961 66.155 50.6379 66.1806C51.6822 66.1572 52.7078 66.4604 53.5716 67.0479C54.7298 67.8194 56.0969 68.2169 57.4882 68.1868C58.8822 68.2134 60.2515 67.8166 61.4154 67.0489C62.2744 66.4589 63.2977 66.1551 64.3395 66.1806C65.3901 66.1582 66.4216 66.4648 67.2894 67.0575C68.4486 67.8213 69.8124 68.2151 71.2004 68.1868C72.1356 68.2074 73.065 68.034 73.9299 67.6776C74.3419 67.4956 74.7411 67.2856 75.1245 67.0493C75.9929 66.4691 77.0169 66.1663 78.0612 66.1806C78.3209 66.1806 78.57 66.0775 78.7536 65.8939C78.9372 65.7102 79.0404 65.4612 79.0404 65.2015C79.0404 64.9418 78.9372 64.6927 78.7536 64.5091C78.57 64.3255 78.3209 64.2223 78.0612 64.2223C77.6805 64.2177 77.3001 64.2446 76.9238 64.3026C75.9287 64.451 74.9772 64.812 74.1341 65.3611C73.8227 65.5538 73.4988 65.7257 73.1647 65.8755C72.542 66.1297 71.8728 66.2498 71.2007 66.228C70.1469 66.2546 69.1119 65.9463 68.2445 65.3474C67.4229 64.817 66.4998 64.4635 65.5341 64.3095L57.4658 52.5267L67.8044 47.3517C68.2592 47.1245 68.6585 46.8002 68.9743 46.4018C69.29 46.0034 69.5145 45.5406 69.6318 45.046C69.7491 44.5513 69.7564 44.037 69.6532 43.5392C69.55 43.0415 69.3388 42.5724 69.0346 42.1652C68.5466 41.5355 67.8601 41.0892 67.0865 40.8988C66.3129 40.7084 65.4977 40.785 64.7731 41.1162L50.4887 47.8777C49.9922 48.1129 49.5498 48.4482 49.189 48.8624C48.8283 49.2767 48.557 49.761 48.3923 50.2851C48.2276 50.8091 48.1729 51.3615 48.2317 51.9077C48.2905 52.4538 48.4615 52.982 48.734 53.4589L50.6326 56.8353L37.9675 64.29C37.6255 64.2455 37.281 64.2229 36.9362 64.2223C36.6765 64.2223 36.4275 64.3255 36.2438 64.5091C36.0602 64.6927 35.957 64.9418 35.957 65.2015C35.957 65.4612 36.0602 65.7102 36.2438 65.8939C36.4275 66.0775 36.6765 66.1806 36.9362 66.1806ZM51.6309 58.5194C52.0793 58.2546 52.4053 57.8238 52.5382 57.3203C52.6712 56.8168 52.6002 56.2812 52.3408 55.8296L50.4332 52.4856C50.2949 52.243 50.2081 51.9743 50.1784 51.6965C50.1487 51.4188 50.1767 51.1379 50.2607 50.8714C50.3446 50.605 50.4827 50.3588 50.6662 50.1482C50.8498 49.9376 51.0748 49.7672 51.3273 49.6476L65.6089 42.8881C65.8661 42.7638 66.1535 42.7153 66.4373 42.7483C66.7211 42.7813 66.9897 42.8945 67.2115 43.0745C67.4334 43.2546 67.5994 43.4941 67.6901 43.765C67.7809 44.036 67.7926 44.3272 67.7239 44.6045C67.674 44.8189 67.5769 45.0195 67.4396 45.1916C67.3022 45.3636 67.1282 45.5028 66.9301 45.599L56.596 50.7721C56.3422 50.8963 56.118 51.0736 55.9388 51.2921C55.7595 51.5105 55.6294 51.765 55.5571 52.0382C55.4844 52.3144 55.4719 52.603 55.5206 52.8845C55.5693 53.166 55.6779 53.4337 55.8392 53.6694L63.1553 64.3085C62.1801 64.4623 61.2487 64.8211 60.4223 65.3611C59.5606 65.9528 58.5336 66.2564 57.4886 66.2284C56.4382 66.2535 55.4069 65.9452 54.5426 65.3478C53.3847 64.5865 52.0233 64.1941 50.6379 64.2223C49.2548 64.1921 47.8955 64.585 46.7418 65.3484C46.7269 65.3561 46.7116 65.3646 46.6968 65.3732C45.8418 65.9589 44.823 66.2582 43.787 66.2281C42.7413 66.2533 41.7141 65.9488 40.8509 65.358C40.7138 65.2776 40.5714 65.1958 40.4256 65.1144L51.6309 58.5194Z" fill="#000F33"/>
    <path d="M78.0612 70.2407C76.6681 70.2122 75.2994 70.6088 74.1374 71.3777C73.2635 71.945 72.2439 72.2469 71.202 72.2469C70.1602 72.2469 69.1406 71.945 68.2667 71.3777C67.093 70.635 65.7325 70.2407 64.3436 70.2407C62.9546 70.2407 61.5942 70.635 60.4204 71.3777C59.5582 71.9679 58.5323 72.2719 57.4877 72.2469C56.4442 72.2719 55.4194 71.9678 54.5584 71.3777C53.3981 70.6088 52.0309 70.2122 50.6392 70.2407C49.247 70.2122 47.8791 70.6088 46.7181 71.3777C45.8564 71.9679 44.8309 72.272 43.7868 72.2469C42.7429 72.2719 41.7175 71.9678 40.856 71.3777C39.6954 70.609 38.328 70.2123 36.9362 70.2407C36.6765 70.2407 36.4275 70.3439 36.2438 70.5275C36.0602 70.7111 35.957 70.9602 35.957 71.2199C35.957 71.4796 36.0602 71.7286 36.2438 71.9122C36.4275 72.0959 36.6765 72.199 36.9362 72.199C37.98 72.1743 39.0052 72.4785 39.8666 73.0687C41.0274 73.8376 42.395 74.2342 43.787 74.2057C45.1792 74.2342 46.547 73.8376 47.708 73.0687C48.5697 72.4786 49.5952 72.1745 50.6392 72.1995C51.6827 72.1746 52.7076 72.4787 53.5686 73.0687C54.7289 73.8376 56.0961 74.2343 57.4877 74.2057C58.8804 74.2343 60.2486 73.8376 61.4101 73.0687C62.2835 72.5014 63.3026 72.1995 64.344 72.1995C65.3855 72.1995 66.4046 72.5014 67.2779 73.0687C68.452 73.8115 69.8127 74.2057 71.202 74.2057C72.5913 74.2057 73.952 73.8115 75.1261 73.0687C75.9891 72.4784 77.0159 72.1742 78.0612 72.199C78.3209 72.199 78.57 72.0959 78.7536 71.9122C78.9372 71.7286 79.0404 71.4796 79.0404 71.2199C79.0404 70.9602 78.9372 70.7111 78.7536 70.5275C78.57 70.3439 78.3209 70.2407 78.0612 70.2407Z" fill="#000F33"/>
    <path d="M64.043 56.1747C64.043 57.5587 64.4535 58.9115 65.2224 60.0622C65.9913 61.2129 67.0842 62.1097 68.3629 62.6393C69.6415 63.1689 71.0485 63.3074 72.4058 63.0373C73.7632 62.7673 75.01 62.1008 75.9885 61.1221C76.9671 60.1435 77.6335 58.8966 77.9034 57.5393C78.1733 56.1819 78.0347 54.7749 77.505 53.4964C76.9754 52.2178 76.0785 51.125 74.9277 50.3561C73.7769 49.5873 72.4241 49.1769 71.0401 49.177C69.1848 49.179 67.4062 49.9169 66.0943 51.2288C64.7825 52.5407 64.0448 54.3195 64.043 56.1747ZM71.0401 51.1353C72.0367 51.1353 73.0108 51.4308 73.8394 51.9845C74.6681 52.5381 75.3139 53.3251 75.6953 54.2458C76.0767 55.1664 76.1765 56.1795 75.9821 57.157C75.7877 58.1344 75.3079 59.0322 74.6032 59.7369C73.8986 60.4416 73.0008 60.9216 72.0234 61.116C71.046 61.3105 70.0329 61.2108 69.1122 60.8295C68.1914 60.4482 67.4045 59.8024 66.8507 58.9739C66.297 58.1453 66.0014 57.1712 66.0013 56.1746C66.0028 54.8387 66.5341 53.5578 67.4787 52.6131C68.4234 51.6684 69.7041 51.1369 71.0401 51.1353Z" fill="#000F33"/>
    <path d="M70.8092 94.0507C71.091 94.8 70.7128 95.6385 69.9539 95.8934C65.3778 97.43 60.56 98.1374 55.7276 97.9781C50.8953 97.8189 46.1345 96.7958 41.6695 94.9612C40.9291 94.6569 40.6069 93.7954 40.9374 93.0663C41.268 92.3371 42.126 92.0168 42.8673 92.319C46.9849 93.9976 51.3713 94.934 55.8231 95.0807C60.2749 95.2274 64.7135 94.5819 68.9327 93.178C69.6922 92.9253 70.5273 93.3014 70.8092 94.0507Z" fill="white"/>
    </svg>
    