<svg width="137" height="58" viewBox="0 0 137 58" fill="none" xmlns="http://www.w3.org/2000/svg">
    <path d="M9.69 48.33C8.41 48.33 7.13 48.19 5.85 47.91C4.57 47.63 3.46 47.22 2.52 46.68C1.96 46.38 1.61 45.98 1.47 45.48C1.33 44.96 1.36 44.46 1.56 43.98C1.76 43.5 2.08 43.16 2.52 42.96C2.96 42.76 3.49 42.81 4.11 43.11C4.91 43.57 5.8 43.91 6.78 44.13C7.76 44.35 8.73 44.46 9.69 44.46C11.13 44.46 12.16 44.24 12.78 43.8C13.42 43.34 13.74 42.77 13.74 42.09C13.74 41.51 13.52 41.05 13.08 40.71C12.64 40.37 11.87 40.08 10.77 39.84L7.38 39.12C3.6 38.32 1.71 36.36 1.71 33.24C1.71 31.9 2.07 30.73 2.79 29.73C3.51 28.71 4.51 27.92 5.79 27.36C7.09 26.8 8.59 26.52 10.29 26.52C11.41 26.52 12.51 26.66 13.59 26.94C14.67 27.2 15.62 27.59 16.44 28.11C16.94 28.41 17.25 28.8 17.37 29.28C17.49 29.76 17.45 30.22 17.25 30.66C17.07 31.1 16.75 31.41 16.29 31.59C15.85 31.77 15.3 31.7 14.64 31.38C13.98 31.04 13.28 30.79 12.54 30.63C11.8 30.47 11.04 30.39 10.26 30.39C9 30.39 8.02 30.64 7.32 31.14C6.64 31.62 6.3 32.25 6.3 33.03C6.3 33.61 6.51 34.08 6.93 34.44C7.35 34.8 8.08 35.09 9.12 35.31L12.51 36.03C16.39 36.87 18.33 38.77 18.33 41.73C18.33 43.05 17.97 44.21 17.25 45.21C16.55 46.19 15.55 46.96 14.25 47.52C12.97 48.06 11.45 48.33 9.69 48.33ZM27.0188 48.27C25.7988 48.27 24.9488 47.66 24.4688 46.44L20.2388 35.97C19.9188 35.15 19.9188 34.46 20.2388 33.9C20.5788 33.32 21.2088 33.03 22.1288 33.03C22.6488 33.03 23.0688 33.16 23.3888 33.42C23.7288 33.66 24.0288 34.13 24.2888 34.83L27.2288 42.72L30.3188 34.44C30.6588 33.5 31.2988 33.03 32.2388 33.03C33.1788 33.03 33.8288 33.5 34.1888 34.44L37.2488 42.84L40.2488 34.71C40.4888 34.07 40.7888 33.63 41.1488 33.39C41.5288 33.15 41.9488 33.03 42.4088 33.03C43.2688 33.03 43.8288 33.33 44.0888 33.93C44.3488 34.53 44.3188 35.21 43.9988 35.97L39.7988 46.44C39.3188 47.66 38.4688 48.27 37.2488 48.27C36.0288 48.27 35.1788 47.66 34.6988 46.44L32.0888 39.63L29.5388 46.41C29.0788 47.65 28.2388 48.27 27.0188 48.27ZM49.0786 30.57C48.2386 30.57 47.5886 30.38 47.1286 30C46.6886 29.6 46.4686 29.04 46.4686 28.32C46.4686 27.58 46.6886 27.02 47.1286 26.64C47.5886 26.24 48.2386 26.04 49.0786 26.04C50.7986 26.04 51.6586 26.8 51.6586 28.32C51.6586 29.82 50.7986 30.57 49.0786 30.57ZM49.0786 48.24C48.3386 48.24 47.7686 48.03 47.3686 47.61C46.9886 47.17 46.7986 46.56 46.7986 45.78V35.52C46.7986 33.86 47.5586 33.03 49.0786 33.03C49.7986 33.03 50.3486 33.25 50.7286 33.69C51.1286 34.11 51.3286 34.72 51.3286 35.52V45.78C51.3286 46.56 51.1386 47.17 50.7586 47.61C50.3786 48.03 49.8186 48.24 49.0786 48.24ZM57.1659 48.27C55.6459 48.27 54.8859 47.5 54.8859 45.96V35.31C54.8859 33.79 55.6259 33.03 57.1059 33.03C58.5859 33.03 59.3259 33.79 59.3259 35.31V35.4C59.7659 34.64 60.3659 34.05 61.1259 33.63C61.9059 33.19 62.8059 32.97 63.8259 32.97C64.8659 32.97 65.7459 33.2 66.4659 33.66C67.2059 34.12 67.7659 34.82 68.1459 35.76C68.6059 34.88 69.2659 34.2 70.1259 33.72C71.0059 33.22 71.9759 32.97 73.0359 32.97C74.7159 32.97 75.9659 33.48 76.7859 34.5C77.6059 35.5 78.0159 37.05 78.0159 39.15V45.96C78.0159 46.7 77.8159 47.27 77.4159 47.67C77.0359 48.07 76.4859 48.27 75.7659 48.27C74.2459 48.27 73.4859 47.5 73.4859 45.96V39.3C73.4859 38.32 73.3259 37.61 73.0059 37.17C72.7059 36.71 72.1859 36.48 71.4459 36.48C70.5859 36.48 69.9159 36.78 69.4359 37.38C68.9559 37.98 68.7159 38.83 68.7159 39.93V45.96C68.7159 47.5 67.9659 48.27 66.4659 48.27C65.7459 48.27 65.1859 48.07 64.7859 47.67C64.3859 47.27 64.1859 46.7 64.1859 45.96V39.3C64.1859 38.32 64.0259 37.61 63.7059 37.17C63.3859 36.71 62.8659 36.48 62.1459 36.48C61.2859 36.48 60.6159 36.78 60.1359 37.38C59.6559 37.98 59.4159 38.83 59.4159 39.93V45.96C59.4159 47.5 58.6659 48.27 57.1659 48.27Z" fill="#004DFF"/>
    <path d="M88.2061 48.27C86.7461 48.27 85.4861 47.96 84.4261 47.34C83.3661 46.7 82.5461 45.81 81.9661 44.67C81.4061 43.51 81.1261 42.16 81.1261 40.62C81.1261 38.3 81.7561 36.48 83.0161 35.16C84.2761 33.82 86.0061 33.15 88.2061 33.15C88.9261 33.15 89.6761 33.27 90.4561 33.51C91.2361 33.73 91.9461 34.1 92.5861 34.62C92.9261 34.86 93.0661 35.16 93.0061 35.52C92.9661 35.88 92.7961 36.15 92.4961 36.33C92.2161 36.51 91.8861 36.47 91.5061 36.21C90.9661 35.81 90.4261 35.53 89.8861 35.37C89.3661 35.21 88.8561 35.13 88.3561 35.13C86.8361 35.13 85.6661 35.61 84.8461 36.57C84.0261 37.51 83.6161 38.87 83.6161 40.65C83.6161 42.39 84.0261 43.77 84.8461 44.79C85.6661 45.79 86.8361 46.29 88.3561 46.29C88.8561 46.29 89.3661 46.21 89.8861 46.05C90.4261 45.89 90.9661 45.61 91.5061 45.21C91.8861 44.95 92.2161 44.92 92.4961 45.12C92.7761 45.3 92.9261 45.57 92.9461 45.93C92.9861 46.29 92.8461 46.58 92.5261 46.8C91.8861 47.32 91.1861 47.7 90.4261 47.94C89.6661 48.16 88.9261 48.27 88.2061 48.27ZM100.353 48.27C98.9128 48.27 97.8128 47.84 97.0528 46.98C96.2928 46.1 95.9128 44.83 95.9128 43.17V27.87C95.9128 27.05 96.3128 26.64 97.1128 26.64C97.9328 26.64 98.3428 27.05 98.3428 27.87V42.99C98.3428 45.13 99.1928 46.2 100.893 46.2C101.073 46.2 101.233 46.19 101.373 46.17C101.513 46.15 101.653 46.14 101.793 46.14C102.013 46.12 102.163 46.17 102.243 46.29C102.343 46.41 102.393 46.65 102.393 47.01C102.393 47.69 102.053 48.08 101.373 48.18C101.213 48.22 101.043 48.24 100.863 48.24C100.683 48.26 100.513 48.27 100.353 48.27ZM109.95 48.27C106.45 48.27 104.7 46.34 104.7 42.48V34.44C104.7 33.62 105.1 33.21 105.9 33.21C106.72 33.21 107.13 33.62 107.13 34.44V42.45C107.13 43.75 107.39 44.71 107.91 45.33C108.45 45.95 109.29 46.26 110.43 46.26C111.67 46.26 112.68 45.85 113.46 45.03C114.24 44.19 114.63 43.08 114.63 41.7V34.44C114.63 33.62 115.04 33.21 115.86 33.21C116.66 33.21 117.06 33.62 117.06 34.44V46.95C117.06 47.79 116.67 48.21 115.89 48.21C115.09 48.21 114.69 47.79 114.69 46.95V45.54C114.23 46.42 113.58 47.1 112.74 47.58C111.92 48.04 110.99 48.27 109.95 48.27ZM128.986 48.27C127.846 48.27 126.836 48.02 125.956 47.52C125.076 47 124.426 46.29 124.006 45.39V46.95C124.006 47.79 123.606 48.21 122.806 48.21C122.006 48.21 121.606 47.79 121.606 46.95V27.87C121.606 27.05 122.006 26.64 122.806 26.64C123.626 26.64 124.036 27.05 124.036 27.87V35.94C124.456 35.08 125.106 34.4 125.986 33.9C126.866 33.4 127.866 33.15 128.986 33.15C130.286 33.15 131.416 33.46 132.376 34.08C133.356 34.68 134.106 35.55 134.626 36.69C135.166 37.81 135.436 39.15 135.436 40.71C135.436 42.25 135.166 43.59 134.626 44.73C134.106 45.85 133.356 46.72 132.376 47.34C131.416 47.96 130.286 48.27 128.986 48.27ZM128.476 46.32C129.836 46.32 130.926 45.84 131.746 44.88C132.566 43.9 132.976 42.51 132.976 40.71C132.976 38.89 132.566 37.5 131.746 36.54C130.926 35.58 129.836 35.1 128.476 35.1C127.116 35.1 126.026 35.58 125.206 36.54C124.386 37.5 123.976 38.89 123.976 40.71C123.976 42.51 124.386 43.9 125.206 44.88C126.026 45.84 127.116 46.32 128.476 46.32Z" fill="white"/>
    <path d="M59.2292 52.002C57.3026 51.9626 55.4097 52.5111 53.8026 53.5744C52.594 54.359 51.184 54.7765 49.7431 54.7765C48.3022 54.7765 46.8922 54.359 45.6836 53.5744C44.0604 52.5473 42.1789 52.002 40.258 52.002C38.3371 52.002 36.4556 52.5473 34.8324 53.5744C33.64 54.3906 32.2211 54.8112 30.7765 54.7765C29.3334 54.811 27.916 54.3905 26.7252 53.5744C25.1206 52.5111 23.2298 51.9625 21.3052 52.002C19.3797 51.9626 17.488 52.5111 15.8823 53.5744C14.6907 54.3906 13.2724 54.8112 11.8285 54.7765C10.3847 54.8111 8.96665 54.3905 7.77517 53.5744C6.17009 52.5113 4.27902 51.9628 2.35417 52.002C1.99502 52.002 1.65058 52.1447 1.39663 52.3986C1.14267 52.6526 1 52.997 1 53.3562C1 53.7153 1.14267 54.0597 1.39663 54.3137C1.65058 54.5676 1.99502 54.7103 2.35417 54.7103C3.79778 54.6761 5.21559 55.0968 6.40678 55.9131C8.01215 56.9764 9.90356 57.5249 11.8287 57.4855C13.7541 57.5249 15.6457 56.9764 17.2514 55.9131C18.443 55.0969 19.8612 54.6763 21.3052 54.711C22.7483 54.6765 24.1657 55.0971 25.3565 55.9131C26.9611 56.9764 28.8519 57.525 30.7765 57.4855C32.7025 57.525 34.5947 56.9765 36.201 55.9131C37.4089 55.1285 38.8183 54.711 40.2586 54.711C41.6989 54.711 43.1083 55.1285 44.3161 55.9131C45.9398 56.9403 47.8217 57.4855 49.743 57.4855C51.6644 57.4855 53.5462 56.9403 55.1699 55.9131C56.3635 55.0967 57.7835 54.676 59.2292 54.7103C59.5883 54.7103 59.9328 54.5676 60.1867 54.3137C60.4407 54.0597 60.5833 53.7153 60.5833 53.3562C60.5833 52.997 60.4407 52.6526 60.1867 52.3986C59.9328 52.1447 59.5883 52.002 59.2292 52.002Z" fill="#004DFF"/>
    <path d="M9 14.0003C9.00007 15.5826 9.46932 17.1293 10.3484 18.4448C11.2275 19.7604 12.477 20.7857 13.9388 21.3912C15.4007 21.9966 17.0092 22.155 18.5611 21.8462C20.1129 21.5375 21.5383 20.7755 22.6571 19.6566C23.7759 18.5377 24.5377 17.1123 24.8463 15.5604C25.155 14.0085 24.9965 12.4 24.3909 10.9382C23.7853 9.47644 22.7599 8.22705 21.4443 7.34806C20.1287 6.46906 18.5819 5.99993 16.9997 6C14.8786 6.00225 12.8451 6.84589 11.3453 8.34577C9.84554 9.84566 9.00207 11.8793 9 14.0003ZM16.9997 8.23892C18.139 8.23892 19.2528 8.57677 20.2001 9.20974C21.1474 9.84271 21.8858 10.7424 22.3218 11.795C22.7579 12.8476 22.872 14.0059 22.6498 15.1233C22.4275 16.2408 21.8789 17.2672 21.0733 18.0729C20.2677 18.8786 19.2413 19.4273 18.1239 19.6496C17.0064 19.872 15.8482 19.758 14.7955 19.3221C13.7429 18.8861 12.8431 18.1478 12.2101 17.2006C11.577 16.2533 11.239 15.1396 11.2389 14.0002C11.2406 12.4728 11.8481 11.0085 12.928 9.92843C14.008 8.84836 15.4723 8.24076 16.9997 8.23892Z" fill="#004DFF"/>
    <path d="M26 5.50023C26 6.58803 26.3227 7.65138 26.927 8.55583C27.5314 9.46027 28.3904 10.1652 29.3955 10.5814C30.4005 10.9977 31.5063 11.1065 32.5732 10.8943C33.6401 10.682 34.6201 10.1581 35.3892 9.38892C36.1584 8.6197 36.6822 7.63967 36.8944 6.57277C37.1065 5.50587 36.9976 4.4 36.5812 3.39503C36.1649 2.39005 35.4599 1.5311 34.5554 0.926789C33.6509 0.322479 32.5876 -4.56597e-05 31.4998 4.84836e-09C30.0415 0.00154854 28.6435 0.581547 27.6124 1.61272C26.5813 2.64389 26.0014 4.042 26 5.50023ZM31.4998 1.53926C32.2831 1.53926 33.0488 1.77153 33.7001 2.2067C34.3514 2.64187 34.859 3.26039 35.1588 3.98406C35.4585 4.70772 35.537 5.50403 35.3842 6.27228C35.2314 7.04054 34.8543 7.74623 34.3004 8.30014C33.7466 8.85404 33.0409 9.23127 32.2727 9.38413C31.5044 9.53699 30.7081 9.45861 29.9844 9.15891C29.2607 8.85921 28.6421 8.35164 28.2069 7.70039C27.7717 7.04914 27.5393 6.28345 27.5393 5.50015C27.5404 4.45008 27.958 3.44334 28.7005 2.7008C29.443 1.95825 30.4497 1.54052 31.4998 1.53926Z" fill="white"/>
    </svg>
    