<svg width="66" height="66" viewBox="0 0 66 66" fill="none" xmlns="http://www.w3.org/2000/svg">
    <rect width="66" height="66" rx="15" fill="#004DFF"/>
    <path d="M23.7245 37.9362C26.9794 41.827 30.8976 44.8904 35.3696 47.058C37.0723 47.8649 39.3493 48.8222 41.8862 48.9863C42.0435 48.9932 42.1939 49 42.3512 49C44.0538 49 45.4214 48.4119 46.536 47.2016C46.5428 47.1948 46.5565 47.1811 46.5633 47.1674C46.9599 46.6888 47.4113 46.258 47.8831 45.7998C48.2045 45.4921 48.5327 45.1707 48.8472 44.8425C50.3037 43.3245 50.3037 41.3962 48.8336 39.926L44.7239 35.8164C44.0265 35.0916 43.1922 34.7087 42.317 34.7087C41.4417 34.7087 40.6006 35.0916 39.8827 35.8096L37.4347 38.2576C37.209 38.1276 36.9765 38.0114 36.7577 37.902C36.4842 37.7652 36.2312 37.6353 36.0055 37.4917C33.7764 36.0763 31.7523 34.23 29.8172 31.8572C28.8393 30.6196 28.1829 29.5802 27.7248 28.5203C28.3675 27.9391 28.9693 27.3305 29.5505 26.7356C29.7556 26.5236 29.9676 26.3116 30.1796 26.0997C30.9181 25.3612 31.3147 24.5064 31.3147 23.638C31.3147 22.7696 30.9249 21.9148 30.1796 21.1763L28.1419 19.1386C27.9025 18.8993 27.6769 18.6668 27.4444 18.4275C26.9931 17.9625 26.5213 17.4838 26.0563 17.053C25.352 16.3624 24.5246 16 23.6493 16C22.7809 16 21.9467 16.3624 21.215 17.0599L18.6576 19.6173C17.7277 20.5472 17.2011 21.6755 17.0917 22.9816C16.9618 24.6158 17.2627 26.3527 18.0422 28.4519C19.2388 31.7 21.0441 34.7155 23.7245 37.9362ZM18.7602 23.1252C18.8422 22.2157 19.191 21.4567 19.8474 20.8002L22.3911 18.2565C22.7877 17.8736 23.2254 17.6753 23.6493 17.6753C24.0664 17.6753 24.4904 17.8736 24.8802 18.2702C25.3383 18.6942 25.7691 19.1386 26.2341 19.6104C26.4666 19.8498 26.7059 20.0891 26.9452 20.3353L28.9829 22.373C29.4069 22.7969 29.6257 23.2277 29.6257 23.6517C29.6257 24.0756 29.4069 24.5064 28.9829 24.9304C28.771 25.1424 28.559 25.3612 28.347 25.5731C27.7111 26.2159 27.1162 26.8245 26.4597 27.4057C26.4461 27.4194 26.4392 27.4262 26.4255 27.4399C25.858 28.0075 25.9469 28.5477 26.0836 28.9579C26.0905 28.9784 26.0973 28.9921 26.1042 29.0126C26.6307 30.2777 27.3623 31.4811 28.5043 32.9171C30.5557 35.4472 32.7165 37.4097 35.0961 38.9208C35.3901 39.1123 35.7047 39.2627 35.9987 39.4132C36.2722 39.5499 36.5252 39.6799 36.7509 39.8235C36.7782 39.8371 36.7987 39.8508 36.8261 39.8645C37.0517 39.9807 37.2706 40.0354 37.4894 40.0354C38.0364 40.0354 38.392 39.6867 38.5082 39.5705L41.0656 37.0131C41.4622 36.6165 41.893 36.4045 42.317 36.4045C42.8367 36.4045 43.2606 36.7259 43.5273 37.0131L47.6506 41.1295C48.4711 41.9501 48.4643 42.839 47.6301 43.7074C47.3429 44.0151 47.042 44.3092 46.7206 44.6169C46.242 45.0818 45.7428 45.5605 45.2915 46.1007C44.5051 46.9486 43.5683 47.3452 42.358 47.3452C42.2418 47.3452 42.1187 47.3384 42.0024 47.3315C39.7596 47.1879 37.674 46.3127 36.1081 45.5673C31.8549 43.5091 28.1214 40.5893 25.0238 36.8831C22.4732 33.8129 20.7569 30.9546 19.6218 27.8912C18.9175 26.0108 18.6508 24.4996 18.7602 23.1252Z" fill="white"/>
    <circle cx="41.957" cy="41.957" r="16.5" fill="white" fill-opacity="0.14"/>
    </svg>
    