<svg width="12" height="13" viewBox="0 0 12 13" fill="none" xmlns="http://www.w3.org/2000/svg">
    <path d="M1.8921 10.1762H11.4285C11.4577 10.1762 11.486 10.1721 11.5131 10.1656C11.5153 10.1656 11.5171 10.1659 11.5193 10.1659C11.7228 10.1659 11.8882 10.0007 11.8882 9.797V-0.631041C11.8883 -0.834707 11.7228 -1 11.5193 -1H11.4292H2.48219H1.89262C0.910554 -1 0.111737 -0.200999 0.111737 0.78079C0.111737 0.793957 0.114328 0.806454 0.115608 0.819164C0.114328 1.72609 0.103081 10.0596 0.114328 11.1552C0.113627 11.1766 0.111005 11.1975 0.111005 11.2192C0.111005 12.1632 0.850204 12.9361 1.77999 12.9945C1.79865 12.9973 1.81693 13 1.83629 13H11.5192C11.7228 13 11.8882 12.8348 11.8882 12.6311V11.2423C11.8882 11.0387 11.7228 10.8733 11.5192 10.8733C11.3157 10.8733 11.1503 11.0387 11.1503 11.2423V12.2622H1.8921C1.33142 12.2622 0.873734 11.817 0.85124 11.2619C0.851789 11.252 0.853587 11.2426 0.853404 11.2325C0.853038 11.2163 0.85249 11.1911 0.852124 11.1576C0.884372 10.6113 1.33782 10.1762 1.8921 10.1762ZM2.14368 0.78079C2.14368 0.577123 2.30897 0.41183 2.51264 0.41183C2.71631 0.41183 2.8816 0.577123 2.8816 0.78079V8.27535C2.8816 8.47892 2.71631 8.64431 2.51264 8.64431C2.30897 8.64431 2.14368 8.47889 2.14368 8.27535V0.78079Z" fill="#004DFF"/>
    </svg>
    