<svg width="115" height="115" viewBox="0 0 115 115" fill="none" xmlns="http://www.w3.org/2000/svg">
    <circle cx="57.5" cy="57.5" r="40.5" fill="white"/>
    <circle cx="57.5" cy="57.5" r="45" stroke="white" stroke-opacity="0.27" stroke-width="9"/>
    <path d="M74.9171 65.8165H73.6392C72.0322 64.0119 68.9217 62.7739 65.8937 62.7739C62.9873 62.7739 60.7971 63.9431 59.7921 65.9966H55.1386C54.1331 63.9418 51.9443 62.7739 49.0396 62.7739C46.0142 62.7739 42.9045 64.0097 41.2953 65.8165H40.0866C39.7286 65.812 39.3732 65.8787 39.0411 66.0126C38.709 66.1464 38.4068 66.345 38.152 66.5966C37.8972 66.8482 37.6949 67.1478 37.5568 67.4782C37.4188 67.8086 37.3477 68.1631 37.3477 68.5212C37.3477 68.8793 37.4188 69.2338 37.5568 69.5642C37.6949 69.8946 37.8972 70.1943 38.152 70.4459C38.4068 70.6975 38.709 70.896 39.0411 71.0299C39.3732 71.1638 39.7286 71.2304 40.0866 71.2259H41.2971C42.9041 73.0306 46.015 74.2681 49.0413 74.2681C52.2021 74.2681 54.5349 72.8608 55.3796 70.4812C56.7473 70.1136 58.1877 70.1136 59.5553 70.4812C60.4001 72.8608 62.735 74.2681 65.8937 74.2681C68.9204 74.2681 72.0296 73.0327 73.6388 71.2259H74.9171C75.6343 71.2233 76.3213 70.9372 76.8284 70.4301C77.3355 69.923 77.6215 69.236 77.6241 68.5188C77.6229 67.8017 77.3371 67.1144 76.8296 66.6077C76.3221 66.1011 75.6342 65.8165 74.9171 65.8165ZM38.8835 68.5188C38.8855 68.2008 39.0131 67.8965 39.2384 67.672C39.4638 67.4476 39.7686 67.3212 40.0866 67.3204H40.3771C40.0941 68.0962 40.0941 68.947 40.3771 69.7228H40.0866C39.9286 69.7228 39.772 69.6917 39.626 69.6312C39.48 69.5707 39.3473 69.482 39.2356 69.3701C39.1239 69.2583 39.0353 69.1256 38.9748 68.9795C38.9144 68.8335 38.8834 68.6769 38.8835 68.5188ZM49.0413 72.7642C46.3704 72.7642 43.5576 71.6397 42.2952 70.0812C42.2663 70.033 42.2322 69.9882 42.1934 69.9476C41.8683 69.5422 41.6832 69.0425 41.6657 68.5231C41.6848 67.9765 41.8852 67.4518 42.2355 67.0317C43.4687 65.4363 46.33 64.2778 49.0413 64.2778C51.5064 64.2778 53.2952 65.2747 53.9466 67.0171C54.1255 67.4981 54.2149 68.0078 54.2105 68.521C54.2114 68.909 54.1608 69.2953 54.0601 69.67C53.5298 71.6367 51.7011 72.7642 49.0413 72.7642ZM55.7015 68.8639C55.7079 68.7509 55.7126 68.6374 55.7126 68.5231C55.7128 68.1804 55.6841 67.8383 55.6267 67.5005H59.3066C59.2492 67.8383 59.2204 68.1804 59.2206 68.5231C59.2206 68.6374 59.2253 68.7509 59.2318 68.8639C58.066 68.6422 56.8689 68.6422 55.7032 68.8639H55.7015ZM65.8937 72.7642C63.2343 72.7642 61.4051 71.6371 60.8749 69.6704C60.7741 69.2959 60.7236 68.9097 60.7245 68.5219C60.7199 68.0063 60.8099 67.4942 60.9901 67.0111C61.641 65.2734 63.4285 64.2765 65.8937 64.2765C68.5762 64.2765 71.401 65.4101 72.6505 66.9737C72.6741 67.012 72.7013 67.0479 72.7317 67.0811C73.0824 67.4893 73.2726 68.011 73.267 68.5491C73.2614 69.0871 73.0603 69.6048 72.7012 70.0056C71.4714 71.6044 68.6084 72.7642 65.8937 72.7642ZM75.7619 69.3696C75.6516 69.4817 75.5201 69.5705 75.375 69.631C75.23 69.6916 75.0743 69.7225 74.9171 69.722H74.5605C74.844 68.9466 74.844 68.0958 74.5605 67.3204H74.9201C75.2384 67.3204 75.5437 67.4466 75.7692 67.6712C75.9947 67.8958 76.122 68.2006 76.1232 68.5188C76.1233 68.6775 76.0916 68.8346 76.0298 68.9807C75.968 69.1269 75.8775 69.2591 75.7636 69.3696H75.7619Z" fill="#000F33"/>
    <path d="M38.3044 59.4645C38.5996 59.7047 38.9447 59.8761 39.3145 59.9662C39.6843 60.0563 40.0695 60.0628 40.4421 59.9852C44.987 59.067 49.6007 58.5302 54.2351 58.3804C55.3471 58.3408 56.4471 58.3206 57.5037 58.3206C58.5603 58.3206 59.6603 58.3408 60.7723 58.3804C65.4067 58.5301 70.0204 59.067 74.5653 59.9852C74.7375 60.0207 74.9129 60.0387 75.0887 60.0389C75.677 60.0389 76.2473 59.836 76.7034 59.4645C76.9957 59.2275 77.231 58.928 77.3922 58.588C77.5533 58.248 77.6361 57.8762 77.6346 57.4999C77.6294 54.3185 76.8727 51.1833 75.4261 48.3498C73.9796 45.5163 71.884 43.0646 69.3102 41.1946C65.8759 38.7084 61.7444 37.3699 57.5046 37.3699C53.2648 37.3699 49.1332 38.7084 45.6989 41.1946C43.1229 43.0677 41.0261 45.5232 39.5796 48.3608C38.133 51.1984 37.3776 54.3377 37.375 57.5227C37.3758 57.8951 37.4596 58.2627 37.6204 58.5986C37.7812 58.9345 38.0148 59.2303 38.3044 59.4645ZM76.1307 57.5184C76.1308 57.6681 76.0972 57.8158 76.0322 57.9506C75.9673 58.0854 75.8727 58.2039 75.7556 58.297C75.6329 58.3965 75.4896 58.4674 75.3361 58.5045C75.1827 58.5417 75.0228 58.5442 74.8682 58.5118C70.4837 57.6249 66.0356 57.088 61.566 56.9061C61.7124 52.1857 63.6599 47.7003 67.0088 44.3704C67.5915 43.7864 68.2131 43.2426 68.8694 42.7427C71.1268 44.4884 72.9548 46.7275 74.2134 49.2885C75.472 51.8496 76.1279 54.6648 76.1307 57.5184ZM57.5037 38.873C61.0798 38.8641 64.5816 39.893 67.5846 41.8348C67.0106 42.295 66.4629 42.787 65.9441 43.3086C62.324 46.9067 60.2182 51.7538 60.0586 56.8554C59.1907 56.8313 58.3343 56.8189 57.5037 56.8189C56.6731 56.8189 55.8168 56.8313 54.9488 56.8554C54.7892 51.7546 52.684 46.9081 49.0651 43.3099C48.5456 42.788 47.9973 42.2955 47.4228 41.8348C50.4258 39.893 53.9276 38.8641 57.5037 38.873ZM46.138 42.7427C48.3286 44.4151 50.1203 46.5533 51.3836 49.0028C52.6468 51.4522 53.3502 54.1517 53.4427 56.9061C48.9729 57.0879 44.5247 57.625 40.14 58.5123C39.9855 58.5444 39.8258 58.5418 39.6724 58.5047C39.519 58.4675 39.3758 58.3967 39.2532 58.2974C39.1338 58.2019 39.0379 58.0805 38.9726 57.9422C38.9074 57.804 38.8746 57.6527 38.8768 57.4999C38.8816 54.6493 39.5385 51.8375 40.797 49.2797C42.0556 46.722 43.8825 44.4859 46.138 42.7427Z" fill="#000F33"/>
    <path d="M70.8092 94.0507C71.091 94.8 70.7128 95.6385 69.9539 95.8934C65.3778 97.43 60.56 98.1374 55.7276 97.9781C50.8953 97.8189 46.1345 96.7958 41.6695 94.9612C40.9291 94.6569 40.6069 93.7954 40.9374 93.0663C41.268 92.3371 42.126 92.0168 42.8673 92.319C46.9849 93.9976 51.3713 94.934 55.8231 95.0807C60.2749 95.2274 64.7135 94.5819 68.9327 93.178C69.6922 92.9253 70.5273 93.3014 70.8092 94.0507Z" fill="#004DFF"/>
    </svg>
    