<svg width="115" height="115" viewBox="0 0 115 115" fill="none" xmlns="http://www.w3.org/2000/svg">
    <circle cx="57.4102" cy="57.5" r="40.5" fill="white"/>
    <circle cx="57.4102" cy="57.5" r="45" stroke="white" stroke-opacity="0.27" stroke-width="9"/>
    <g clip-path="url(#clip0_1197_19620)">
    <path d="M42.7061 67.1683C42.4034 67.3225 42.2829 67.693 42.4371 67.9958C42.5915 68.2986 42.962 68.419 43.2645 68.2647C44.6853 67.5412 46.3815 67.5412 47.8023 68.2647C47.8917 68.3103 47.9871 68.3318 48.081 68.3318C48.305 68.3318 48.521 68.209 48.6297 67.9957C48.7839 67.6929 48.6634 67.3225 48.3606 67.1682C46.5904 66.2666 44.4764 66.2666 42.7061 67.1683ZM41.0051 57.6924C41.4548 57.6924 41.9309 57.6387 42.3915 57.5868C43.3754 57.4758 44.393 57.3612 45.1617 57.7605C45.3492 57.8579 45.5508 57.9059 45.7511 57.9059C46.0229 57.9059 46.2922 57.8173 46.5201 57.6437C46.9161 57.3419 47.0973 56.8517 46.9931 56.3643C46.3204 53.2195 44.1701 51.3971 41.0934 51.3643C40.2386 51.3547 39.3962 51.698 38.7818 52.3051C38.1762 52.9035 37.8421 53.6915 37.8409 54.5238C37.8398 55.3698 38.1683 56.1655 38.7662 56.764C39.3639 57.3627 40.1591 57.6924 41.0051 57.6924ZM39.6466 53.1803C40.0241 52.8074 40.538 52.5946 41.0598 52.5946C41.0666 52.5946 41.0735 52.5946 41.0802 52.5947C44.268 52.6287 45.4009 54.8033 45.7898 56.6217C45.7925 56.6344 45.7955 56.6488 45.7743 56.665C45.7529 56.6811 45.7403 56.6744 45.7289 56.6685C45.1097 56.3469 44.4401 56.2511 43.7747 56.2511C43.2566 56.2511 42.7408 56.3092 42.2538 56.3641C41.8073 56.4144 41.3856 56.4619 41.0051 56.4619C40.4881 56.4619 40.0022 56.2605 39.6368 55.8946C39.2715 55.5287 39.0707 55.0425 39.0713 54.5255C39.072 54.024 39.2762 53.5463 39.6466 53.1803ZM59.2689 65.6711C57.8481 66.3946 56.1519 66.3946 54.7311 65.6711C54.4285 65.5169 54.0579 65.6373 53.9036 65.9401C53.7494 66.2428 53.8699 66.6133 54.1727 66.7675C55.0578 67.2184 56.0289 67.4438 57 67.4438C57.9711 67.4438 58.9422 67.2184 59.8273 66.7675C60.1301 66.6133 60.2506 66.2428 60.0964 65.9401C59.9421 65.6372 59.5716 65.517 59.2689 65.6711ZM75.9955 60.9556L75.1159 60.5076C74.2618 60.0726 73.3277 59.8481 72.3909 59.8328C73.5376 58.3011 74.1201 56.4111 74.0463 54.3986C73.9582 51.9903 72.9396 49.6939 71.1782 47.9326C69.4167 46.1712 67.1204 45.1525 64.7121 45.0643C62.287 44.9755 60.0387 45.839 58.382 47.4957C56.7254 49.1524 55.8618 51.4004 55.9507 53.8258C55.9631 54.1665 55.995 54.505 56.0442 54.8401C55.7274 54.8741 55.4154 54.9299 55.1088 55.003C53.9843 53.7103 53.577 51.3621 53.6811 49.5122C53.7541 48.215 52.7581 47.1004 51.461 47.0273C50.8308 46.9918 50.2258 47.2033 49.757 47.6229C49.2887 48.0418 49.0114 48.6188 48.976 49.2474C48.8578 51.3477 49.1752 53.4808 49.8698 55.2539C50.1968 56.089 50.6086 56.8457 51.0947 57.513C50.4343 58.314 49.9491 59.2431 49.6694 60.2445C49.4684 60.3217 49.2704 60.4089 49.0766 60.5075C47.6558 61.2311 45.9596 61.2311 44.5388 60.5075C42.7686 59.6059 40.6545 59.6059 38.8841 60.5075L38.0046 60.9555C36.7681 61.5854 36 62.8385 36 64.2261V68.0963C36 71.2592 38.5732 73.8324 41.7361 73.8324H72.2639C74.568 73.8324 76.6403 72.4626 77.5433 70.3426C77.6764 70.03 77.5309 69.6686 77.2183 69.5355C76.9056 69.4023 76.5443 69.5478 76.4111 69.8604C75.7018 71.5257 74.0739 72.6018 72.2638 72.6018H41.7361C39.2517 72.6019 37.2305 70.5807 37.2305 68.0963V64.2261C37.2305 63.3037 37.7411 62.4707 38.5631 62.052L39.4425 61.6041C40.8633 60.8805 42.5595 60.8805 43.9803 61.6041C45.7506 62.5057 47.8646 62.5057 49.6349 61.6041C51.0557 60.8805 52.7519 60.8805 54.1727 61.6041C55.9429 62.5057 58.0571 62.5057 59.8273 61.6041C61.2481 60.8805 62.9443 60.8805 64.3651 61.6041C66.1353 62.5057 68.2494 62.5057 70.0197 61.6041C71.4403 60.8805 73.1366 60.8805 74.5574 61.6041L75.437 62.052C76.259 62.4706 76.7695 63.3037 76.7695 64.2261V67.1922C76.7695 67.532 77.0449 67.8074 77.3848 67.8074C77.7246 67.8074 78 67.532 78 67.1922V64.2261C78 62.8385 77.2319 61.5853 75.9955 60.9556ZM51.0155 54.8053C50.3841 53.1934 50.0962 51.2441 50.2046 49.3167C50.2215 49.0159 50.3539 48.7401 50.5774 48.54C50.8011 48.3399 51.0901 48.2387 51.3919 48.256C52.0116 48.2909 52.4874 48.8235 52.4526 49.4432C52.3509 51.25 52.6847 53.7418 53.8718 55.4159C53.1848 55.7152 52.5436 56.1195 51.9675 56.6198C51.5955 56.0791 51.2764 55.4714 51.0155 54.8053ZM54.7311 60.5076C53.5987 59.9309 52.3257 59.7236 51.0919 59.8848C51.379 59.1863 51.7917 58.544 52.3135 57.9892C52.3283 57.9752 52.3423 57.9607 52.3555 57.9456C52.3858 57.914 52.4158 57.882 52.4469 57.8509C53.491 56.8069 54.8465 56.1795 56.3047 56.0527C56.7537 57.6261 57.6118 59.0845 58.8189 60.2917C58.9166 60.3893 59.017 60.4846 59.1188 60.5784C57.7296 61.2282 56.1024 61.206 54.7311 60.5076ZM70.7451 59.8586C70.6663 59.9374 70.5831 60.0151 70.4965 60.0934C70.1423 60.1994 69.7956 60.3374 69.4614 60.5077C68.0406 61.2312 66.3443 61.2312 64.9236 60.5077C63.5195 59.7926 61.8993 59.6452 60.4058 60.0645C60.156 59.8638 59.9158 59.6485 59.6891 59.4218C58.527 58.2598 57.7349 56.8347 57.3825 55.305C57.3795 55.2879 57.3757 55.271 57.3713 55.2543C57.2633 54.7717 57.1986 54.2789 57.1803 53.7808C57.1041 51.7011 57.8398 49.778 59.2521 48.3658C59.6476 47.9704 60.0831 47.6279 60.5507 47.3414C62.8435 48.7697 65.8073 51.2817 66.8182 52.2926C67.8285 53.3029 70.3381 56.2637 71.7669 58.5561C71.4834 59.0212 71.1443 59.4593 70.7451 59.8586ZM67.6883 51.4225C66.736 50.4702 64.109 48.2306 61.8523 46.7187C62.7299 46.4042 63.6805 46.2576 64.6671 46.2941C66.7639 46.3709 68.7671 47.2618 70.3081 48.8027C72.6593 51.1539 73.372 54.4908 72.3881 57.2523C70.876 54.9969 68.6397 52.3739 67.6883 51.4225ZM40.2441 43.6785C40.5827 43.7108 40.8829 43.4632 40.9155 43.1249C40.9582 42.6792 41.1569 42.2593 41.4748 41.9422C41.8298 41.5881 42.3101 41.394 42.8326 41.3979C43.3702 41.4011 43.8905 41.6196 44.2605 41.9975C46.4906 44.2756 45.7538 46.6143 44.7431 48.1752C44.736 48.186 44.7278 48.1984 44.7015 48.1948C44.6752 48.1913 44.6709 48.1774 44.6669 48.1653C44.2927 46.9822 43.3004 46.191 42.4249 45.4927C42.2811 45.3781 42.1388 45.2647 42.0011 45.1509C41.7392 44.9345 41.3514 44.9713 41.1349 45.2333C40.9185 45.4952 40.9554 45.8831 41.2174 46.0995C41.3604 46.2176 41.5083 46.3356 41.6577 46.4547C42.4319 47.0721 43.2325 47.7106 43.4938 48.5363C43.644 49.0113 44.0437 49.3477 44.5369 49.4142C44.5956 49.4222 44.654 49.426 44.7118 49.426C45.1403 49.426 45.5373 49.2126 45.7759 48.844C47.524 46.1446 47.2921 43.3354 45.1398 41.1368C44.5417 40.5259 43.7035 40.1726 42.8399 40.1675C42.8333 40.1675 42.8267 40.1675 42.8201 40.1675C41.9763 40.1675 41.1905 40.488 40.6059 41.0711C40.0858 41.5898 39.7608 42.2774 39.6907 43.0073C39.6581 43.3455 39.9059 43.646 40.2441 43.6785ZM65.8289 67.7799C65.5262 67.9341 65.4057 68.3045 65.5599 68.6073C65.7143 68.9102 66.0847 69.0305 66.3873 68.8763C67.8081 68.1528 69.5044 68.1528 70.9251 68.8763C71.0145 68.9218 71.1099 68.9434 71.2038 68.9434C71.4278 68.9434 71.6438 68.8206 71.7525 68.6072C71.9067 68.3044 71.7862 67.934 71.4834 67.7798C69.7132 66.8782 67.5992 66.8782 65.8289 67.7799ZM62.9869 51.6559C62.9869 51.2364 62.8235 50.842 62.5269 50.5453C61.9147 49.933 60.9182 49.9329 60.3057 50.5453C60.0654 50.7855 60.0654 51.1751 60.3057 51.4154C60.546 51.6556 60.9355 51.6556 61.1758 51.4154C61.3083 51.2826 61.5241 51.2828 61.6567 51.4154C61.721 51.4797 61.7564 51.5651 61.7564 51.656C61.7564 51.7468 61.721 51.8322 61.6567 51.8965C61.4164 52.1367 61.4164 52.5263 61.6567 52.7666C61.7768 52.8867 61.9343 52.9468 62.0918 52.9468C62.2492 52.9468 62.4067 52.8868 62.5268 52.7667C62.8235 52.4698 62.9869 52.0754 62.9869 51.6559ZM66.3443 57.454C66.5845 57.6943 66.9741 57.6942 67.2144 57.454C67.2786 57.3898 67.364 57.3544 67.4549 57.3544C67.5458 57.3544 67.6311 57.3898 67.6954 57.454C67.828 57.5867 67.828 57.8024 67.6954 57.935C67.4551 58.1753 67.4551 58.5649 67.6955 58.8051C67.8156 58.9252 67.9731 58.9853 68.1305 58.9853C68.2879 58.9853 68.4454 58.9252 68.5656 58.8051C69.1779 58.1927 69.1779 57.1963 68.5655 56.5839C68.2689 56.2873 67.8744 56.124 67.455 56.124C67.0355 56.124 66.641 56.2874 66.3443 56.584C66.104 56.8242 66.104 57.2137 66.3443 57.454ZM64.3203 55.5675C64.1096 55.582 63.9033 55.505 63.7545 55.3562C63.6057 55.2074 63.5287 55.0011 63.5431 54.7902C63.5664 54.4513 63.3104 54.1576 62.9714 54.1344C62.6319 54.1103 62.3388 54.367 62.3155 54.7061C62.2767 55.2718 62.4841 55.8259 62.8845 56.2263C63.2531 56.5948 63.7517 56.7998 64.2699 56.7997C64.3146 56.7997 64.3598 56.7982 64.4048 56.7951C64.7437 56.7718 64.9997 56.4782 64.9764 56.1391C64.9529 55.8001 64.6592 55.5446 64.3203 55.5675Z" fill="#000F33"/>
    </g>
    <path d="M70.8092 94.0507C71.091 94.8 70.7128 95.6385 69.9539 95.8934C65.3778 97.43 60.56 98.1374 55.7276 97.9781C50.8953 97.8189 46.1345 96.7958 41.6695 94.9612C40.9291 94.6569 40.6069 93.7954 40.9374 93.0663C41.268 92.3371 42.126 92.0168 42.8673 92.319C46.9849 93.9976 51.3713 94.934 55.8231 95.0807C60.2749 95.2274 64.7135 94.5819 68.9327 93.178C69.6922 92.9253 70.5273 93.3014 70.8092 94.0507Z" fill="#004DFF"/>
    <defs>
    <clipPath id="clip0_1197_19620">
    <rect width="42" height="42" fill="white" transform="translate(36 36)"/>
    </clipPath>
    </defs>
    </svg>
    